Coordinates
version=1
nRows=29
nColumns=22
inDegrees=yes

Units are S.I. units (second, meters, Newtons, ...)
If the header above contains a line with 'inDegrees', this indicates whether rotational values are in degrees (yes) or radians (no).

endheader
time	pelvis_tilt	pelvis_list	pelvis_rotation	pelvis_tx	pelvis_ty	pelvis_tz	hip_flexion_r	hip_adduction_r	hip_rotation_r	knee_angle_r	ankle_angle_r	subtalar_angle_r	hip_flexion_l	hip_adduction_l	hip_rotation_l	knee_angle_l	ankle_angle_l	subtalar_angle_l	lumbar_extension	lumbar_bending	lumbar_rotation
      0.01000000	     -4.62859983	     -3.51594547	     -9.54803140	     -0.98495418	      0.89249817	      0.80472938	    -10.49598838	      5.33742392	     -7.82979607	    -14.81303657	     21.55217003	      3.03436279	     37.02560292	     -5.89910394	    -17.48888520	    -23.06795640	      5.64790658	     -2.16517977	    -11.24084757	      0.03294223	      6.80115773
      0.02000000	     -4.76622088	     -3.49895350	     -9.69500377	     -0.97843613	      0.89168062	      0.80495471	    -10.69026763	      5.21690830	     -7.51246699	    -14.97487558	     21.24945155	      3.08993966	     37.16185951	     -5.97823959	    -17.73384016	    -23.74080333	      5.23379907	     -3.11973667	    -10.90221166	     -0.07653529	      6.86832285
      0.03000000	     -4.91572540	     -3.46918055	     -9.82449251	     -0.97074884	      0.89087195	      0.80512238	    -10.90628883	      5.06289191	     -7.19010368	    -15.19634800	     20.85376356	      3.21440639	     37.33562250	     -6.02631985	    -17.83913466	    -24.56279729	      4.70925101	     -4.23987536	    -10.51600284	     -0.20839813	      6.90657834
      0.04000000	     -5.06773929	     -3.39543313	     -9.95414987	     -0.96212877	      0.89017367	      0.80526764	    -11.13303382	      4.84630502	     -6.82958420	    -15.47032240	     20.33410280	      3.37013944	     37.53644330	     -6.03212168	    -17.84566049	    -25.51789598	      4.13524631	     -5.42477092	    -10.08260944	     -0.40276133	      6.93023875
      0.05000000	     -5.19464875	     -3.27165925	    -10.05268457	     -0.95279623	      0.88967871	      0.80531636	    -11.38257192	      4.55996459	     -6.50668530	    -15.79342929	     19.67405235	      3.57131185	     37.74054234	     -5.96727065	    -17.73459756	    -26.58636002	      3.56017912	     -6.62681154	     -9.63536529	     -0.65953494	      6.93196931
      0.06000000	     -5.28372358	     -3.08985619	    -10.12045691	     -0.94294133	      0.88945414	      0.80528957	    -11.65305238	      4.20128088	     -6.19935723	    -16.16505444	     18.87166727	      3.83503357	     37.91614704	     -5.81759835	    -17.50542950	    -27.72224410	      3.05410190	     -7.72603082	     -9.18885137	     -0.99586081	      6.90342881
      0.07000000	     -5.31326311	     -2.84282799	    -10.13980384	     -0.93269317	      0.88955617	      0.80511600	    -11.95290104	      3.76108766	     -5.94398548	    -16.59017104	     17.91243455	      4.13855579	     38.01645636	     -5.55138595	    -17.17578266	    -28.86353130	      2.61754667	     -8.61763097	     -8.76878314	     -1.40998694	      6.83905938
      0.08000000	     -5.28814229	     -2.53242976	    -10.10746171	     -0.92212674	      0.88997551	      0.80479316	    -12.27064157	      3.24344523	     -5.77339468	    -17.06879088	     16.80939960	      4.48749187	     38.02197812	     -5.16576833	    -16.78769013	    -29.96457988	      2.30917580	     -9.32006936	     -8.36620262	     -1.90184372	      6.75757310
      0.09000000	     -5.21276154	     -2.16958276	    -10.02960542	     -0.91132972	      0.89070317	      0.80430971	    -12.58148360	      2.65950054	     -5.67856846	    -17.63121467	     15.56486173	      4.87499541	     37.90612180	     -4.66943071	    -16.37887417	    -30.96661109	      2.14805493	     -9.82499328	     -7.98438556	     -2.45421262	      6.66586151
      0.10000000	     -5.09828042	     -1.78136505	     -9.91785829	     -0.90039758	      0.89171959	      0.80368748	    -12.84710158	      2.03954517	     -5.64713740	    -18.32233434	     14.18228379	      5.29570432	     37.65215268	     -4.09303059	    -15.97720825	    -31.81939586	      2.14055714	    -10.14547046	     -7.62393647	     -3.03893125	      6.59199504
      0.11000000	     -4.96328485	     -1.39159399	     -9.75826754	     -0.88940004	      0.89298364	      0.80289951	    -13.03535878	      1.41486201	     -5.68360042	    -19.16406037	     12.65183735	      5.71070178	     37.27294441	     -3.46417967	    -15.61682008	    -32.50628076	      2.21894015	    -10.30585500	     -7.27921284	     -3.61780064	      6.48412787
      0.12000000	     -4.82537163	     -1.01973098	     -9.56576759	     -0.87840234	      0.89445159	      0.80196746	    -13.09893512	      0.80247212	     -5.78107541	    -20.20437283	     10.97314637	      6.12382282	     36.77286188	     -2.81549396	    -15.32093985	    -33.00594363	      2.42028002	    -10.36861684	     -6.93923718	     -4.16793063	      6.37390463
      0.13000000	     -4.70261195	     -0.68401102	     -9.35084388	     -0.86746942	      0.89607427	      0.80089942	    -12.99516723	      0.21783552	     -5.92634725	    -21.48065726	      9.15835609	      6.50131459	     36.17174923	     -2.17556479	    -15.09161894	    -33.31959220	      2.73656310	    -10.38708978	     -6.59666946	     -4.66382478	      6.26842047
      0.14000000	     -4.60173107	     -0.39081756	     -9.12015947	     -0.85664640	      0.89780644	      0.79969891	    -12.69740550	     -0.33679242	     -6.10483486	    -23.01846039	      7.21100072	      6.83218080	     35.48063192	     -1.55678165	    -14.93188517	    -33.44992547	      3.15608604	    -10.41363490	     -6.24934159	     -5.09396221	      6.16087285
      0.15000000	     -4.52412492	     -0.14487502	     -8.88270206	     -0.84597449	      0.89960810	      0.79838339	    -12.19185974	     -0.86160404	     -6.29324971	    -24.83106938	      5.13765265	      7.09369406	     34.71471635	     -0.97123554	    -14.83398570	    -33.41661367	      3.68532098	    -10.49144213	     -5.90336906	     -5.45372600	      6.05107510
      0.16000000	     -4.47077381	      0.06708016	     -8.63039661	     -0.83549204	      0.90143337	      0.79693526	    -11.46626542	     -1.37588308	     -6.51327379	    -26.92497659	      2.94549786	      7.15483543	     33.90164338	     -0.40030124	    -14.76292278	    -33.24744091	      4.19149597	    -10.59301262	     -5.56191519	     -5.75624481	      5.92954469
      0.17000000	     -4.41699792	      0.24388826	     -8.37911475	     -0.82518192	      0.90326808	      0.79541240	    -10.56363233	     -1.87832509	     -6.69997127	    -29.26186826	      0.63660758	      7.10042665	     33.03092639	      0.14077744	    -14.72960389	    -32.97724271	      4.76209952	    -10.70100384	     -5.25215021	     -6.00705867	      5.77630866
      0.18000000	     -4.36084097	      0.41118232	     -8.12827214	     -0.81507053	      0.90505713	      0.79378076	     -9.46995581	     -2.41659834	     -6.91265071	    -31.85818882	     -1.71931321	      7.01610138	     32.12420685	      0.68784289	    -14.69255719	    -32.62512257	      5.30954688	    -10.93233304	     -4.97587582	     -6.23081481	      5.64484563
      0.19000000	     -4.28166717	      0.56471071	     -7.87482606	     -0.80515440	      0.90678115	      0.79210650	     -8.24280522	     -2.96249942	     -7.05855378	    -34.64050593	     -4.13705058	      6.83123997	     31.19698981	      1.22396146	    -14.64534689	    -32.26181479	      5.87949231	    -11.15585198	     -4.76208362	     -6.43468478	      5.47188780
      0.20000000	     -4.17720680	      0.71598931	     -7.61976029	     -0.79543607	      0.90840048	      0.79040395	     -6.89717877	     -3.52518561	     -7.14192908	    -37.56891512	     -6.54508103	      6.59720437	     30.26149862	      1.76093107	    -14.56665037	    -31.90639926	      6.47098324	    -11.40109435	     -4.61009045	     -6.63191861	      5.26673143
      0.21000000	     -4.00878968	      0.85744287	     -7.34895610	     -0.78592284	      0.90996162	      0.78868082	     -5.50478270	     -4.09259486	     -7.17543860	    -40.57048382	     -8.95832476	      6.37220018	     29.29834580	      2.28932487	    -14.45570750	    -31.59660269	      6.98452557	    -11.50902417	     -4.57598889	     -6.82231150	      5.02831302
      0.22000000	     -3.81450286	      1.00753861	     -7.06909775	     -0.77663471	      0.91137307	      0.78695339	     -4.03175487	     -4.67349328	     -7.14707317	    -43.61289405	    -11.20417315	      6.15913763	     28.35156562	      2.82596273	    -14.28901618	    -31.33336144	      7.51550769	    -11.63409537	     -4.60899070	     -7.02356152	      4.77822074
      0.23000000	     -3.60015797	      1.16660726	     -6.77401182	     -0.76758458	      0.91263148	      0.78521834	     -2.49566181	     -5.24932491	     -7.03480259	    -46.63246243	    -13.18012986	      5.96676229	     27.42621124	      3.37160624	    -14.06543492	    -31.11230378	      8.04895125	    -11.77763550	     -4.70477158	     -7.23395425	      4.50366516
      0.24000000	     -3.33857323	      1.30598252	     -6.44507024	     -0.75874835	      0.91381269	      0.78346732	     -0.96493589	     -5.79205281	     -6.89180758	    -49.54851643	    -14.82832649	      5.81062642	     26.48852169	      3.89329876	    -13.81075814	    -30.94277592	      8.55924905	    -11.84562544	     -4.89944446	     -7.42664324	      4.20467675
      0.25000000	     -3.08761469	      1.45587467	     -6.09433199	     -0.75014547	      0.91484330	      0.78169244	      0.62254828	     -6.30665004	     -6.66196060	    -52.34361934	    -15.93674785	      5.67161062	     25.57975207	      4.42207783	    -13.52130712	    -30.77572603	      9.05946253	    -11.92957907	     -5.11750951	     -7.62273201	      3.88137899
      0.26000000	     -2.80650554	      1.58066776	     -5.69686381	     -0.74172183	      0.91583735	      0.77986491	      2.18190614	     -6.76520957	     -6.41496058	    -54.94452040	    -16.54721762	      5.56967405	     24.64572526	      4.92253153	    -13.22041041	    -30.61471705	      9.51242460	    -11.93477313	     -5.40735355	     -7.78572453	      3.51783000
      0.27000000	     -2.54312674	      1.69550857	     -5.26366057	     -0.73348595	      0.91673530	      0.77796701	      3.76651648	     -7.17193030	     -6.12528404	    -57.34774551	    -16.54390545	      5.50350773	     23.72422858	      5.40945052	    -12.90281762	    -30.42967318	      9.94927082	    -11.93085662	     -5.70440180	     -7.92209096	      3.15284096
      0.28000000	     -2.29524340	      1.78654219	     -4.78861764	     -0.72539247	      0.91757978	      0.77599606	      5.35492240	     -7.51262745	     -5.81259620	    -59.51905128	    -16.00150217	      5.51574687	     22.80007234	      5.86789398	    -12.57038533	    -30.20987208	     10.36317735	    -11.91371109	     -6.00377776	     -8.01726211	      2.76810882
      0.29000000	     -2.07866337	      1.85689806	     -4.26789678	     -0.71742791	      0.91836947	      0.77390741	      6.95650484	     -7.79173325	     -5.47896795	    -61.44037320	    -15.02056398	      5.64395464	     21.88330115	      6.30480905	    -12.21773577	    -29.94208626	     10.75350677	    -11.89527129	     -6.28064535	     -8.06676616	      2.37558445
